<?xml version="1.0" encoding="UTF-8"?>
<svg width="20px" height="20px" viewBox="0 0 20 20" version="1.1" xmlns="http://www.w3.org/2000/svg" xmlns:xlink="http://www.w3.org/1999/xlink">
    <!-- Generator: Sketch 52.1 (67048) - http://www.bohemiancoding.com/sketch -->
    <title>laughing-face</title>
    <desc>Created with Sketch.</desc>
    <g id="WeMove" stroke="none" stroke-width="1" fill="none" fill-rule="evenodd">
        <g id="Desktop" transform="translate(-211.000000, -101.000000)" fill-rule="nonzero" stroke="#FBFBFB">
            <g id="SideBar" transform="translate(0.000000, -21.000000)">
                <g id="SideBar-Menu" transform="translate(1.000000, 96.000000)">
                    <g id="menu" transform="translate(26.000000, 26.000000)">
                        <g id="li" transform="translate(185.000000, 0.000000)">
                            <g id="iconfinder_icon-51-laughing-face_314645" transform="translate(0.000000, 1.000000)">
                                <path d="M9,18 C13.970563,18 18,13.970563 18,9 C18,4.02943701 13.970563,0 9,0 C4.02943701,0 0,4.02943701 0,9 C0,13.970563 4.02943701,18 9,18 Z M9,17.28 C13.5729179,17.28 17.28,13.5729179 17.28,9 C17.28,4.42708207 13.5729179,0.72 9,0.72 C4.42708207,0.72 0.72,4.42708207 0.72,9 C0.72,13.5729179 4.42708207,17.28 9,17.28 Z M10.5635325,7.0508831 L12.6,5.01441559 L14.6364675,7.0508831 L14.1273506,7.56 L12.6,6.03264938 L11.0726494,7.56 L10.5635325,7.0508831 Z M3.36353247,7.0508831 L5.4,5.01441559 L7.43646751,7.0508831 L6.92735062,7.56 L5.4,6.03264938 L3.87264936,7.56 L3.36353247,7.0508831 Z M3.6,10.8 C3.6,10.8 4.32,15.12 9,15.12 C13.68,15.12 14.4,10.8 14.4,10.8 L3.6,10.8 Z M4.56811524,11.52 C4.56811524,11.52 5.49506448,14.4096684 9.01773742,14.4096679 C12.5404104,14.4096677 13.4224805,11.52 13.4224805,11.52 L4.56811524,11.52 Z" id="laughing-face"></path>
                            </g>
                        </g>
                    </g>
                </g>
            </g>
        </g>
    </g>
</svg>