<?xml version="1.0" encoding="UTF-8"?>
<svg width="18px" height="18px" viewBox="0 0 18 18" version="1.1" xmlns="http://www.w3.org/2000/svg" xmlns:xlink="http://www.w3.org/1999/xlink">
    <!-- Generator: Sketch 52.1 (67048) - http://www.bohemiancoding.com/sketch -->
    <title>search</title>
    <desc>Created with Sketch.</desc>
    <g id="WeMove" stroke="none" stroke-width="1" fill="none" fill-rule="evenodd">
        <g id="Desktop" transform="translate(-27.000000, -102.000000)" fill="#000000" fill-rule="nonzero">
            <g id="SideBar" transform="translate(0.000000, -21.000000)">
                <g id="SideBar-Menu" transform="translate(1.000000, 96.000000)">
                    <g id="menu" transform="translate(26.000000, 26.000000)">
                        <g id="li-search">
                            <g id="iconfinder_icon-111-search_314689" transform="translate(0.000000, 1.000000)">
                                <path d="M10.9858225,12.6221861 C9.84865868,13.4324839 8.45726089,13.9090909 6.95454545,13.9090909 C3.11365586,13.9090909 0,10.795435 0,6.95454545 C0,3.11365586 3.11365586,0 6.95454545,0 C10.795435,0 13.9090909,3.11365586 13.9090909,6.95454545 C13.9090909,8.45726089 13.4324839,9.84865868 12.6221861,10.9858225 L17.1915689,15.5552053 C17.6417334,16.0053698 17.6379802,16.7256562 17.191406,17.1722303 L17.1722303,17.191406 C16.7267985,17.6368379 16.0016894,17.6380531 15.5552053,17.1915689 L10.9858225,12.6221861 Z M6.95454545,12.2727273 C9.89169635,12.2727273 12.2727273,9.89169635 12.2727273,6.95454545 C12.2727273,4.01739455 9.89169635,1.63636364 6.95454545,1.63636364 C4.01739455,1.63636364 1.63636364,4.01739455 1.63636364,6.95454545 C1.63636364,9.89169635 4.01739455,12.2727273 6.95454545,12.2727273 Z" id="search"></path>
                            </g>
                        </g>
                    </g>
                </g>
            </g>
        </g>
    </g>
</svg>